<?xml version="1.0" encoding="UTF-8" standalone="no"?>
<!DOCTYPE svg PUBLIC "-//W3C//DTD SVG 1.1//EN"
 "http://www.w3.org/Graphics/SVG/1.1/DTD/svg11.dtd">
<!-- Generated by graphviz version 7.1.0 (20230121.1956)
 -->
<!-- Title: snakemake_dag Pages: 1 -->
<svg width="316pt" height="836pt"
 viewBox="0.00 0.00 316.31 836.00" xmlns="http://www.w3.org/2000/svg" xmlns:xlink="http://www.w3.org/1999/xlink">
<g id="graph0" class="graph" transform="scale(1 1) rotate(0) translate(4 832)">
<title>snakemake_dag</title>
<polygon fill="white" stroke="none" points="-4,4 -4,-832 312.31,-832 312.31,4 -4,4"/>
<!-- 0 -->
<g id="node1" class="node">
<title>0</title>
<path fill="none" stroke="#59d856" stroke-width="2" d="M170.44,-36C170.44,-36 140.44,-36 140.44,-36 134.44,-36 128.44,-30 128.44,-24 128.44,-24 128.44,-12 128.44,-12 128.44,-6 134.44,0 140.44,0 140.44,0 170.44,0 170.44,0 176.44,0 182.44,-6 182.44,-12 182.44,-12 182.44,-24 182.44,-24 182.44,-30 176.44,-36 170.44,-36"/>
<text text-anchor="middle" x="155.44" y="-15" font-family="sans" font-size="10.00">final</text>
</g>
<!-- 1 -->
<g id="node2" class="node">
<title>1</title>
<path fill="none" stroke="#56d873" stroke-width="2" d="M134.56,-108C134.56,-108 16.31,-108 16.31,-108 10.31,-108 4.31,-102 4.31,-96 4.31,-96 4.31,-84 4.31,-84 4.31,-78 10.31,-72 16.31,-72 16.31,-72 134.56,-72 134.56,-72 140.56,-72 146.56,-78 146.56,-84 146.56,-84 146.56,-96 146.56,-96 146.56,-102 140.56,-108 134.56,-108"/>
<text text-anchor="middle" x="75.44" y="-87" font-family="sans" font-size="10.00">minimap_hifi_filter_pcr_merge</text>
</g>
<!-- 1&#45;&gt;0 -->
<g id="edge1" class="edge">
<title>1&#45;&gt;0</title>
<path fill="none" stroke="grey" stroke-width="2" d="M95.62,-71.34C104.65,-63.44 115.48,-53.96 125.42,-45.26"/>
<polygon fill="grey" stroke="grey" stroke-width="2" points="127.48,-48.11 132.7,-38.9 122.87,-42.85 127.48,-48.11"/>
</g>
<!-- 2 -->
<g id="node3" class="node">
<title>2</title>
<path fill="none" stroke="#d86e56" stroke-width="2" d="M102.81,-180C102.81,-180 12.06,-180 12.06,-180 6.06,-180 0.06,-174 0.06,-168 0.06,-168 0.06,-156 0.06,-156 0.06,-150 6.06,-144 12.06,-144 12.06,-144 102.81,-144 102.81,-144 108.81,-144 114.81,-150 114.81,-156 114.81,-156 114.81,-168 114.81,-168 114.81,-174 108.81,-180 102.81,-180"/>
<text text-anchor="middle" x="57.44" y="-159" font-family="sans" font-size="10.00">minimap_hifi_sort_filter</text>
</g>
<!-- 2&#45;&gt;1 -->
<g id="edge4" class="edge">
<title>2&#45;&gt;1</title>
<path fill="none" stroke="grey" stroke-width="2" d="M61.98,-143.34C63.69,-136.67 65.69,-128.89 67.62,-121.39"/>
<polygon fill="grey" stroke="grey" stroke-width="2" points="70.98,-122.39 70.08,-111.83 64.2,-120.65 70.98,-122.39"/>
</g>
<!-- 3 -->
<g id="node4" class="node">
<title>3</title>
<path fill="none" stroke="#56d8a2" stroke-width="2" d="M88.88,-252C88.88,-252 22,-252 22,-252 16,-252 10,-246 10,-240 10,-240 10,-228 10,-228 10,-222 16,-216 22,-216 22,-216 88.88,-216 88.88,-216 94.88,-216 100.88,-222 100.88,-228 100.88,-228 100.88,-240 100.88,-240 100.88,-246 94.88,-252 88.88,-252"/>
<text text-anchor="middle" x="55.44" y="-231" font-family="sans" font-size="10.00">minimap_hifi_sort</text>
</g>
<!-- 3&#45;&gt;2 -->
<g id="edge5" class="edge">
<title>3&#45;&gt;2</title>
<path fill="none" stroke="grey" stroke-width="2" d="M55.94,-215.34C56.13,-208.75 56.35,-201.08 56.56,-193.67"/>
<polygon fill="grey" stroke="grey" stroke-width="2" points="60.05,-194.02 56.84,-183.93 53.05,-193.82 60.05,-194.02"/>
</g>
<!-- 4 -->
<g id="node5" class="node">
<title>4</title>
<path fill="none" stroke="#56c1d8" stroke-width="2" d="M78.88,-324C78.88,-324 32,-324 32,-324 26,-324 20,-318 20,-312 20,-312 20,-300 20,-300 20,-294 26,-288 32,-288 32,-288 78.88,-288 78.88,-288 84.88,-288 90.88,-294 90.88,-300 90.88,-300 90.88,-312 90.88,-312 90.88,-318 84.88,-324 78.88,-324"/>
<text text-anchor="middle" x="55.44" y="-303" font-family="sans" font-size="10.00">minimap_hifi</text>
</g>
<!-- 4&#45;&gt;3 -->
<g id="edge6" class="edge">
<title>4&#45;&gt;3</title>
<path fill="none" stroke="grey" stroke-width="2" d="M55.44,-287.34C55.44,-280.75 55.44,-273.08 55.44,-265.67"/>
<polygon fill="grey" stroke="grey" stroke-width="2" points="58.94,-265.93 55.44,-255.93 51.94,-265.93 58.94,-265.93"/>
</g>
<!-- 5 -->
<g id="node6" class="node">
<title>5</title>
<path fill="none" stroke="#56d8d8" stroke-width="2" d="M95.76,-828C95.76,-828 65.11,-828 65.11,-828 59.11,-828 53.11,-822 53.11,-816 53.11,-816 53.11,-804 53.11,-804 53.11,-798 59.11,-792 65.11,-792 65.11,-792 95.76,-792 95.76,-792 101.76,-792 107.76,-798 107.76,-804 107.76,-804 107.76,-816 107.76,-816 107.76,-822 101.76,-828 95.76,-828"/>
<text text-anchor="middle" x="80.44" y="-807" font-family="sans" font-size="10.00">hifi_fastp</text>
</g>
<!-- 5&#45;&gt;4 -->
<g id="edge7" class="edge">
<title>5&#45;&gt;4</title>
<path fill="none" stroke="grey" stroke-width="2" d="M74.43,-791.3C65.93,-764.67 51.44,-712.54 51.44,-667 51.44,-667 51.44,-667 51.44,-449 51.44,-410.64 52.91,-366.47 54.07,-337.71"/>
<polygon fill="grey" stroke="grey" stroke-width="2" points="57.56,-338.09 54.48,-327.95 50.57,-337.8 57.56,-338.09"/>
</g>
<!-- 11 -->
<g id="node12" class="node">
<title>11</title>
<path fill="none" stroke="#d88d56" stroke-width="2" d="M123.44,-756C123.44,-756 93.44,-756 93.44,-756 87.44,-756 81.44,-750 81.44,-744 81.44,-744 81.44,-732 81.44,-732 81.44,-726 87.44,-720 93.44,-720 93.44,-720 123.44,-720 123.44,-720 129.44,-720 135.44,-726 135.44,-732 135.44,-732 135.44,-744 135.44,-744 135.44,-750 129.44,-756 123.44,-756"/>
<text text-anchor="middle" x="108.44" y="-735" font-family="sans" font-size="10.00">hifiasm</text>
</g>
<!-- 5&#45;&gt;11 -->
<g id="edge17" class="edge">
<title>5&#45;&gt;11</title>
<path fill="none" stroke="grey" stroke-width="2" d="M87.5,-791.34C90.23,-784.51 93.44,-776.5 96.5,-768.83"/>
<polygon fill="grey" stroke="grey" stroke-width="2" points="99.69,-770.3 100.15,-759.71 93.19,-767.7 99.69,-770.3"/>
</g>
<!-- 6 -->
<g id="node7" class="node">
<title>6</title>
<path fill="none" stroke="#70d856" stroke-width="2" d="M168.86,-396C168.86,-396 122.01,-396 122.01,-396 116.01,-396 110.01,-390 110.01,-384 110.01,-384 110.01,-372 110.01,-372 110.01,-366 116.01,-360 122.01,-360 122.01,-360 168.86,-360 168.86,-360 174.86,-360 180.86,-366 180.86,-372 180.86,-372 180.86,-384 180.86,-384 180.86,-390 174.86,-396 168.86,-396"/>
<text text-anchor="middle" x="145.44" y="-375" font-family="sans" font-size="10.00">patch_verkko</text>
</g>
<!-- 6&#45;&gt;4 -->
<g id="edge8" class="edge">
<title>6&#45;&gt;4</title>
<path fill="none" stroke="grey" stroke-width="2" d="M122.73,-359.34C112.36,-351.27 99.88,-341.57 88.5,-332.72"/>
<polygon fill="grey" stroke="grey" stroke-width="2" points="90.88,-330.14 80.84,-326.76 86.59,-335.66 90.88,-330.14"/>
</g>
<!-- 14 -->
<g id="node15" class="node">
<title>14</title>
<path fill="none" stroke="#d8a456" stroke-width="2" d="M160.44,-252C160.44,-252 130.44,-252 130.44,-252 124.44,-252 118.44,-246 118.44,-240 118.44,-240 118.44,-228 118.44,-228 118.44,-222 124.44,-216 130.44,-216 130.44,-216 160.44,-216 160.44,-216 166.44,-216 172.44,-222 172.44,-228 172.44,-228 172.44,-240 172.44,-240 172.44,-246 166.44,-252 160.44,-252"/>
<text text-anchor="middle" x="145.44" y="-231" font-family="sans" font-size="10.00">pcr_free</text>
</g>
<!-- 6&#45;&gt;14 -->
<g id="edge19" class="edge">
<title>6&#45;&gt;14</title>
<path fill="none" stroke="grey" stroke-width="2" d="M145.44,-359.02C145.44,-335.54 145.44,-294.11 145.44,-265.64"/>
<polygon fill="grey" stroke="grey" stroke-width="2" points="148.94,-265.87 145.44,-255.87 141.94,-265.87 148.94,-265.87"/>
</g>
<!-- 18 -->
<g id="node19" class="node">
<title>18</title>
<path fill="none" stroke="#a7d856" stroke-width="2" d="M259.27,-324C259.27,-324 213.61,-324 213.61,-324 207.61,-324 201.61,-318 201.61,-312 201.61,-312 201.61,-300 201.61,-300 201.61,-294 207.61,-288 213.61,-288 213.61,-288 259.27,-288 259.27,-288 265.27,-288 271.27,-294 271.27,-300 271.27,-300 271.27,-312 271.27,-312 271.27,-318 265.27,-324 259.27,-324"/>
<text text-anchor="middle" x="236.44" y="-303" font-family="sans" font-size="10.00">minimap_ont</text>
</g>
<!-- 6&#45;&gt;18 -->
<g id="edge24" class="edge">
<title>6&#45;&gt;18</title>
<path fill="none" stroke="grey" stroke-width="2" d="M168.4,-359.34C178.88,-351.27 191.5,-341.57 203,-332.72"/>
<polygon fill="grey" stroke="grey" stroke-width="2" points="204.97,-335.62 210.76,-326.75 200.7,-330.07 204.97,-335.62"/>
</g>
<!-- 7 -->
<g id="node8" class="node">
<title>7</title>
<path fill="none" stroke="#56d8c1" stroke-width="2" d="M162.64,-468C162.64,-468 128.23,-468 128.23,-468 122.23,-468 116.23,-462 116.23,-456 116.23,-456 116.23,-444 116.23,-444 116.23,-438 122.23,-432 128.23,-432 128.23,-432 162.64,-432 162.64,-432 168.64,-432 174.64,-438 174.64,-444 174.64,-444 174.64,-456 174.64,-456 174.64,-462 168.64,-468 162.64,-468"/>
<text text-anchor="middle" x="145.44" y="-447" font-family="sans" font-size="10.00">patch_flye</text>
</g>
<!-- 7&#45;&gt;6 -->
<g id="edge9" class="edge">
<title>7&#45;&gt;6</title>
<path fill="none" stroke="grey" stroke-width="2" d="M145.44,-431.34C145.44,-424.75 145.44,-417.08 145.44,-409.67"/>
<polygon fill="grey" stroke="grey" stroke-width="2" points="148.94,-409.93 145.44,-399.93 141.94,-409.93 148.94,-409.93"/>
</g>
<!-- 8 -->
<g id="node9" class="node">
<title>8</title>
<path fill="none" stroke="#bed856" stroke-width="2" d="M159.44,-540C159.44,-540 129.44,-540 129.44,-540 123.44,-540 117.44,-534 117.44,-528 117.44,-528 117.44,-516 117.44,-516 117.44,-510 123.44,-504 129.44,-504 129.44,-504 159.44,-504 159.44,-504 165.44,-504 171.44,-510 171.44,-516 171.44,-516 171.44,-528 171.44,-528 171.44,-534 165.44,-540 159.44,-540"/>
<text text-anchor="middle" x="144.44" y="-519" font-family="sans" font-size="10.00">yahs</text>
</g>
<!-- 8&#45;&gt;7 -->
<g id="edge10" class="edge">
<title>8&#45;&gt;7</title>
<path fill="none" stroke="grey" stroke-width="2" d="M144.69,-503.34C144.78,-496.75 144.89,-489.08 145,-481.67"/>
<polygon fill="grey" stroke="grey" stroke-width="2" points="148.49,-481.98 145.14,-471.93 141.49,-481.88 148.49,-481.98"/>
</g>
<!-- 9 -->
<g id="node10" class="node">
<title>9</title>
<path fill="none" stroke="#568ad8" stroke-width="2" d="M159.44,-612C159.44,-612 129.44,-612 129.44,-612 123.44,-612 117.44,-606 117.44,-600 117.44,-600 117.44,-588 117.44,-588 117.44,-582 123.44,-576 129.44,-576 129.44,-576 159.44,-576 159.44,-576 165.44,-576 171.44,-582 171.44,-588 171.44,-588 171.44,-600 171.44,-600 171.44,-606 165.44,-612 159.44,-612"/>
<text text-anchor="middle" x="144.44" y="-591" font-family="sans" font-size="10.00">hicpro</text>
</g>
<!-- 9&#45;&gt;8 -->
<g id="edge12" class="edge">
<title>9&#45;&gt;8</title>
<path fill="none" stroke="grey" stroke-width="2" d="M144.44,-575.34C144.44,-568.75 144.44,-561.08 144.44,-553.67"/>
<polygon fill="grey" stroke="grey" stroke-width="2" points="147.94,-553.93 144.44,-543.93 140.94,-553.93 147.94,-553.93"/>
</g>
<!-- 10 -->
<g id="node11" class="node">
<title>10</title>
<path fill="none" stroke="#d6d856" stroke-width="2" d="M125.04,-684C125.04,-684 91.83,-684 91.83,-684 85.83,-684 79.83,-678 79.83,-672 79.83,-672 79.83,-660 79.83,-660 79.83,-654 85.83,-648 91.83,-648 91.83,-648 125.04,-648 125.04,-648 131.04,-648 137.04,-654 137.04,-660 137.04,-660 137.04,-672 137.04,-672 137.04,-678 131.04,-684 125.04,-684"/>
<text text-anchor="middle" x="108.44" y="-663" font-family="sans" font-size="10.00">rm_mt_cp</text>
</g>
<!-- 10&#45;&gt;8 -->
<g id="edge13" class="edge">
<title>10&#45;&gt;8</title>
<path fill="none" stroke="grey" stroke-width="2" d="M105.42,-647.15C103.01,-628.85 101.12,-599.78 108.44,-576 111.12,-567.29 115.77,-558.72 120.86,-551.1"/>
<polygon fill="grey" stroke="grey" stroke-width="2" points="123.6,-553.29 126.66,-543.15 117.94,-549.16 123.6,-553.29"/>
</g>
<!-- 10&#45;&gt;9 -->
<g id="edge14" class="edge">
<title>10&#45;&gt;9</title>
<path fill="none" stroke="grey" stroke-width="2" d="M117.52,-647.34C121.12,-640.34 125.35,-632.12 129.38,-624.28"/>
<polygon fill="grey" stroke="grey" stroke-width="2" points="132.38,-626.09 133.84,-615.59 126.16,-622.89 132.38,-626.09"/>
</g>
<!-- 11&#45;&gt;10 -->
<g id="edge15" class="edge">
<title>11&#45;&gt;10</title>
<path fill="none" stroke="grey" stroke-width="2" d="M108.44,-719.34C108.44,-712.75 108.44,-705.08 108.44,-697.67"/>
<polygon fill="grey" stroke="grey" stroke-width="2" points="111.94,-697.93 108.44,-687.93 104.94,-697.93 111.94,-697.93"/>
</g>
<!-- 12 -->
<g id="node13" class="node">
<title>12</title>
<path fill="none" stroke="#d8bc56" stroke-width="2" d="M197.44,-828C197.44,-828 167.44,-828 167.44,-828 161.44,-828 155.44,-822 155.44,-816 155.44,-816 155.44,-804 155.44,-804 155.44,-798 161.44,-792 167.44,-792 167.44,-792 197.44,-792 197.44,-792 203.44,-792 209.44,-798 209.44,-804 209.44,-804 209.44,-816 209.44,-816 209.44,-822 203.44,-828 197.44,-828"/>
<text text-anchor="middle" x="182.44" y="-807" font-family="sans" font-size="10.00">ont_fastp</text>
</g>
<!-- 12&#45;&gt;11 -->
<g id="edge16" class="edge">
<title>12&#45;&gt;11</title>
<path fill="none" stroke="grey" stroke-width="2" d="M163.76,-791.34C155.59,-783.6 145.82,-774.36 136.77,-765.81"/>
<polygon fill="grey" stroke="grey" stroke-width="2" points="139.23,-763.31 129.56,-758.98 134.42,-768.4 139.23,-763.31"/>
</g>
<!-- 13 -->
<g id="node14" class="node">
<title>13</title>
<path fill="none" stroke="#56a2d8" stroke-width="2" d="M197.44,-684C197.44,-684 167.44,-684 167.44,-684 161.44,-684 155.44,-678 155.44,-672 155.44,-672 155.44,-660 155.44,-660 155.44,-654 161.44,-648 167.44,-648 167.44,-648 197.44,-648 197.44,-648 203.44,-648 209.44,-654 209.44,-660 209.44,-660 209.44,-672 209.44,-672 209.44,-678 203.44,-684 197.44,-684"/>
<text text-anchor="middle" x="182.44" y="-663" font-family="sans" font-size="10.00">flye</text>
</g>
<!-- 12&#45;&gt;13 -->
<g id="edge18" class="edge">
<title>12&#45;&gt;13</title>
<path fill="none" stroke="grey" stroke-width="2" d="M182.44,-791.02C182.44,-767.54 182.44,-726.11 182.44,-697.64"/>
<polygon fill="grey" stroke="grey" stroke-width="2" points="185.94,-697.87 182.44,-687.87 178.94,-697.87 185.94,-697.87"/>
</g>
<!-- 12&#45;&gt;18 -->
<g id="edge23" class="edge">
<title>12&#45;&gt;18</title>
<path fill="none" stroke="grey" stroke-width="2" d="M194.37,-791.03C210.55,-764.89 237.44,-714.32 237.44,-667 237.44,-667 237.44,-667 237.44,-449 237.44,-410.65 237.07,-366.48 236.78,-337.72"/>
<polygon fill="grey" stroke="grey" stroke-width="2" points="240.28,-337.92 236.67,-327.96 233.28,-338 240.28,-337.92"/>
</g>
<!-- 13&#45;&gt;7 -->
<g id="edge11" class="edge">
<title>13&#45;&gt;7</title>
<path fill="none" stroke="grey" stroke-width="2" d="M185.42,-647.11C189.78,-616.84 195.79,-553.97 180.44,-504 177.78,-495.36 173.24,-486.82 168.29,-479.2"/>
<polygon fill="grey" stroke="grey" stroke-width="2" points="171.3,-477.4 162.67,-471.26 165.59,-481.45 171.3,-477.4"/>
</g>
<!-- 14&#45;&gt;1 -->
<g id="edge3" class="edge">
<title>14&#45;&gt;1</title>
<path fill="none" stroke="grey" stroke-width="2" d="M143.62,-215.02C141.14,-196.36 135.55,-166.76 123.44,-144 118.51,-134.75 111.62,-125.85 104.59,-118.06"/>
<polygon fill="grey" stroke="grey" stroke-width="2" points="107.3,-115.82 97.85,-111.03 102.25,-120.67 107.3,-115.82"/>
</g>
<!-- 15 -->
<g id="node16" class="node">
<title>15</title>
<path fill="none" stroke="#56d88a" stroke-width="2" d="M296.19,-108C296.19,-108 176.69,-108 176.69,-108 170.69,-108 164.69,-102 164.69,-96 164.69,-96 164.69,-84 164.69,-84 164.69,-78 170.69,-72 176.69,-72 176.69,-72 296.19,-72 296.19,-72 302.19,-72 308.19,-78 308.19,-84 308.19,-84 308.19,-96 308.19,-96 308.19,-102 302.19,-108 296.19,-108"/>
<text text-anchor="middle" x="236.44" y="-87" font-family="sans" font-size="10.00">minimap_ont_sort_filter_merge</text>
</g>
<!-- 15&#45;&gt;0 -->
<g id="edge2" class="edge">
<title>15&#45;&gt;0</title>
<path fill="none" stroke="grey" stroke-width="2" d="M216,-71.34C206.86,-63.44 195.9,-53.96 185.82,-45.26"/>
<polygon fill="grey" stroke="grey" stroke-width="2" points="188.3,-42.77 178.44,-38.88 183.72,-48.07 188.3,-42.77"/>
</g>
<!-- 16 -->
<g id="node17" class="node">
<title>16</title>
<path fill="none" stroke="#88d856" stroke-width="2" d="M281.2,-180C281.2,-180 191.67,-180 191.67,-180 185.67,-180 179.67,-174 179.67,-168 179.67,-168 179.67,-156 179.67,-156 179.67,-150 185.67,-144 191.67,-144 191.67,-144 281.2,-144 281.2,-144 287.2,-144 293.2,-150 293.2,-156 293.2,-156 293.2,-168 293.2,-168 293.2,-174 287.2,-180 281.2,-180"/>
<text text-anchor="middle" x="236.44" y="-159" font-family="sans" font-size="10.00">minimap_ont_sort_filter</text>
</g>
<!-- 16&#45;&gt;15 -->
<g id="edge20" class="edge">
<title>16&#45;&gt;15</title>
<path fill="none" stroke="grey" stroke-width="2" d="M236.44,-143.34C236.44,-136.75 236.44,-129.08 236.44,-121.67"/>
<polygon fill="grey" stroke="grey" stroke-width="2" points="239.94,-121.93 236.44,-111.93 232.94,-121.93 239.94,-121.93"/>
</g>
<!-- 17 -->
<g id="node18" class="node">
<title>17</title>
<path fill="none" stroke="#d85656" stroke-width="2" d="M269.27,-252C269.27,-252 203.61,-252 203.61,-252 197.61,-252 191.61,-246 191.61,-240 191.61,-240 191.61,-228 191.61,-228 191.61,-222 197.61,-216 203.61,-216 203.61,-216 269.27,-216 269.27,-216 275.27,-216 281.27,-222 281.27,-228 281.27,-228 281.27,-240 281.27,-240 281.27,-246 275.27,-252 269.27,-252"/>
<text text-anchor="middle" x="236.44" y="-231" font-family="sans" font-size="10.00">minimap_ont_sort</text>
</g>
<!-- 17&#45;&gt;16 -->
<g id="edge21" class="edge">
<title>17&#45;&gt;16</title>
<path fill="none" stroke="grey" stroke-width="2" d="M236.44,-215.34C236.44,-208.75 236.44,-201.08 236.44,-193.67"/>
<polygon fill="grey" stroke="grey" stroke-width="2" points="239.94,-193.93 236.44,-183.93 232.94,-193.93 239.94,-193.93"/>
</g>
<!-- 18&#45;&gt;17 -->
<g id="edge22" class="edge">
<title>18&#45;&gt;17</title>
<path fill="none" stroke="grey" stroke-width="2" d="M236.44,-287.34C236.44,-280.75 236.44,-273.08 236.44,-265.67"/>
<polygon fill="grey" stroke="grey" stroke-width="2" points="239.94,-265.93 236.44,-255.93 232.94,-265.93 239.94,-265.93"/>
</g>
</g>
</svg>
